<svg width="800" height="800" viewBox="0 0 800 800" fill="none" xmlns="http://www.w3.org/2000/svg">
<g clip-path="url(#clip0_6_188)">
<g filter="url(#filter0_f_6_188)">
<circle cx="340.595" cy="210.905" r="141.858" fill="black"/>
<circle cx="430.248" cy="310.705" r="167.571" transform="rotate(-165 430.248 310.705)" fill="black"/>
<circle cx="184.586" cy="184.586" r="184.586" transform="matrix(0.998118 0.0613208 0.0613208 -0.998118 55.7327 546.424)" fill="black"/>
<circle cx="131.145" cy="131.145" r="131.145" transform="matrix(0.976166 0.217027 0.217027 -0.976166 277.63 479.078)" fill="black"/>
<circle cx="406.442" cy="320.567" r="154.4" fill="black"/>
<circle cx="73.7785" cy="73.7785" r="73.7785" transform="matrix(-0.879513 0.475874 0.475874 0.879513 695.917 535.513)" fill="black"/>
<ellipse cx="652.377" cy="638.125" rx="94.0679" ry="98.3631" transform="rotate(-130.426 652.377 638.125)" fill="black"/>
</g>
<g style="mix-blend-mode:color-dodge">
<rect width="800" height="800" fill="#878787"/>
</g>
<g style="mix-blend-mode:screen">
<rect width="1060" height="1060" transform="translate(-130 -130)" fill="url(#paint0_linear_6_188)"/>
</g>
</g>
<defs>
<filter id="filter0_f_6_188" x="-44.2673" y="-99.4753" width="957.482" height="972.994" filterUnits="userSpaceOnUse" color-interpolation-filters="sRGB">
<feFlood flood-opacity="0" result="BackgroundImageFix"/>
<feBlend mode="normal" in="SourceGraphic" in2="BackgroundImageFix" result="shape"/>
<feGaussianBlur stdDeviation="50" result="effect1_foregroundBlur_6_188"/>
</filter>
<linearGradient id="paint0_linear_6_188" x1="530" y1="245.125" x2="530" y2="821.5" gradientUnits="userSpaceOnUse">
<stop stop-color="#F12711"/>
<stop offset="1" stop-color="#FFAE00"/>
</linearGradient>
<clipPath id="clip0_6_188">
<rect width="800" height="800" fill="white"/>
</clipPath>
</defs>
</svg>
